<svg xmlns="http://www.w3.org/2000/svg" xmlns:xlink="http://www.w3.org/1999/xlink" version="1.1" x="0px" y="0px" viewBox="0 0 100 125" enable-background="new 0 0 100 100" xml:space="preserve"><g><path fill="none" d="M87.622,47.389l-0.508-0.293l-0.012-0.587C86.81,32.827,75.431,21.696,61.739,21.696   c-8.848,0-16.913,4.496-21.58,12.025l-0.419,0.677l-0.764-0.226c-1.656-0.489-3.377-0.737-5.118-0.737   c-7.469,0-14.255,4.695-16.884,11.686l-0.188,0.499l-0.514,0.141C9.098,47.721,4.087,54.292,4.087,61.739   c0,9.135,7.431,16.564,16.565,16.564h58.696c9.135,0,16.565-7.43,16.565-16.564C95.913,55.849,92.735,50.351,87.622,47.389z"/><path fill="#000000" d="M89.171,45.884C88.55,31.343,76.364,19.609,61.739,19.609c-9.313,0-17.827,4.603-22.932,12.354   c-1.612-0.408-3.273-0.615-4.949-0.615c-8.157,0-15.583,5.02-18.646,12.545C7.407,46.268,2,53.531,2,61.739   c0,10.285,8.367,18.652,18.652,18.652h58.696C89.632,80.392,98,72.024,98,61.739C98,55.302,94.631,49.281,89.171,45.884z    M79.348,78.304H20.652c-9.134,0-16.565-7.43-16.565-16.564c0-7.447,5.011-14.018,12.186-15.979l0.514-0.141l0.188-0.499   c2.629-6.99,9.415-11.686,16.884-11.686c1.74,0,3.462,0.248,5.118,0.737l0.764,0.226l0.419-0.677   c4.667-7.53,12.732-12.025,21.58-12.025c13.691,0,25.07,11.131,25.363,24.813l0.012,0.587l0.508,0.293   c5.113,2.961,8.291,8.459,8.291,14.35C95.913,70.874,88.482,78.304,79.348,78.304z"/></g><text x="0" y="115" fill="#000000" font-size="5px" font-weight="bold" font-family="'Helvetica Neue', Helvetica, Arial-Unicode, Arial, Sans-serif"></text><text x="0" y="120" fill="#000000" font-size="5px" font-weight="bold" font-family="'Helvetica Neue', Helvetica, Arial-Unicode, Arial, Sans-serif"></text></svg>
